<?xml version="1.0" encoding="UTF-8" standalone="no"?>
<!-- Created with Inkscape (http://www.inkscape.org/) -->

<svg
   width="100"
   height="100"
   viewBox="0 0 100 100"
   version="1.1"
   id="svg1"
   xmlns="http://www.w3.org/2000/svg"
   xmlns:svg="http://www.w3.org/2000/svg">
  <defs
     id="defs1">
    <mask
       maskUnits="userSpaceOnUse"
       id="mask17">
      <g
         id="g18"
         style="display:inline;stroke-width:0.97232"
         transform="matrix(1.0577469,0,0,1,0.44507315,0)">
        <path
           id="path17"
           style="display:inline;fill:#ffffff;fill-opacity:1;stroke-width:2.91696"
           d="m 70.786057,39.174332 c 0,7.074816 -20.092179,12.810087 -44.877137,12.810087 -24.7849578,0 -44.877136,-5.735271 -44.877136,-12.810087 -2e-6,-7.074816 21.4937937,-84.711489 46.278753,-84.711489 24.784959,0 43.475522,77.636673 43.47552,84.711489 z" />
        <path
           style="color:#000000;display:inline;fill:#000000;fill-opacity:1;stroke-width:0.97232;-inkscape-stroke:none"
           d="m 16.686,-1.5416001 19.116349,69.5683491 3.935766,3 -20.766537,-75.5683491 z"
           id="path18" />
        <ellipse
           style="fill:#000000;fill-opacity:1;stroke:none;stroke-width:2.91696;stroke-dasharray:none;stroke-opacity:1"
           id="ellipse18"
           cx="25.90892"
           cy="2.0956569"
           rx="44.877136"
           ry="12.810087" />
      </g>
    </mask>
  </defs>
  <g
     id="layer1">
    <g
       id="g27"
       style="display:inline">
      <path
         style="display:inline;fill:#de47c5;fill-opacity:1;fill-rule:nonzero;stroke:none;stroke-width:3"
         d="M 11.359106,28.416 54.089449,55.944349 52.868732,59.326793 4.5918896,49.813823 4.1529995,36.143563 Z"
         id="path26" />
      <path
         style="fill:#de4779;fill-opacity:1;fill-rule:nonzero;stroke:none;stroke-width:3"
         d="M 10.806348,27.68325 53.940021,56.05291 56.317514,53.43774 27.895301,11.504503 16.174414,16.575435 Z"
         id="path28" />
      <path
         style="fill:#de6047;fill-opacity:1;fill-rule:nonzero;stroke:none;stroke-width:3"
         d="M 59.655056,52.4674 50.36836,4.9442967 36.182431,6.6198262 27.330459,10.2025 56.183662,53.366648 Z"
         id="path29" />
      <path
         style="fill:#deac47;fill-opacity:1;fill-rule:nonzero;stroke:none;stroke-width:3"
         d="M 63.11754,53.210056 72.738327,11.237663 61.397618,5.407787 50.644902,5.4206235 59.730073,52.397049 Z"
         id="path30" />
      <path
         style="fill:#c4de47;fill-opacity:1;fill-rule:nonzero;stroke:none;stroke-width:3"
         d="m 63.250631,53.471878 8.950142,-41.6792 10.825544,5.52637 5.664748,11.088656 -22.742623,27.394957 z"
         id="path31" />
      <path
         style="fill:#79de47;fill-opacity:1;fill-rule:nonzero;stroke:none;stroke-width:3"
         d="M 88.613084,28.2527 65.71677,55.92394 66.811152,59.475294 94.120783,50.301011 94.322356,37.888922 Z"
         id="path32" />
      <path
         style="fill:#47de61;fill-opacity:1;fill-rule:nonzero;stroke:none;stroke-width:3"
         d="M 66.4995,59.536915 94.305918,50.00843 94.426826,61.583579 89.192405,72.386516 66.048752,63.012789 Z"
         id="path33" />
      <path
         style="fill:#47deac;fill-opacity:1;fill-rule:nonzero;stroke:none;stroke-width:3"
         d="m 65.654123,62.916857 23.189528,9.584671 -6.268889,12.802926 -9.969173,2.885724 -9.394151,-22.834546 z"
         id="path34" />
      <path
         style="fill:#47c4de;fill-opacity:1;fill-rule:nonzero;stroke:none;stroke-width:3"
         d="M 59.640024,66.280916 49.986621,96.260013 63.27278,95.552918 72.854155,90.601624 63.401499,65.444256 Z"
         id="path35" />
      <path
         style="fill:#4779de;fill-opacity:1;fill-rule:nonzero;stroke:none;stroke-width:3"
         d="M 56.108943,65.297961 27.573037,88.828828 37.2202,94.728107 49.99827,95.150768 59.818783,66.405804 Z"
         id="path36" />
      <path
         style="fill:#6047de;fill-opacity:1;fill-rule:nonzero;stroke:none;stroke-width:3"
         d="m 53.462333,62.791049 -41.938158,9.624678 4.648353,10.791289 11.522506,7.163125 28.488863,-24.889232 z"
         id="path37" />
      <path
         style="fill:#ac47de;fill-opacity:1;fill-rule:nonzero;stroke:none;stroke-width:3"
         d="M 52.743301,59.382503 5.3035483,50.334119 4.5267183,63.604307 10.934078,72.554381 53.596683,62.91873 Z"
         id="path38" />
    </g>
    <path
       id="rect7"
       style="fill:#000000;fill-opacity:1;fill-rule:nonzero;stroke:none;stroke-width:3"
       d="M 0,0 V 48.125 51.875 100 H 100 V 51.875 48.125 0 Z m 51.875,7.5507812 c 6.184122,0.2728567 12.233995,1.8933109 17.726562,4.7480468 l -4.832261,23.011325 c -2.627684,-1.305497 -5.489774,-2.072686 -8.418129,-2.256495 z m -3.75,0.097656 5.473651,25.4553978 c -2.921003,0.179349 -5.776955,0.93915 -8.400925,2.23499 L 30.40625,12.316406 C 35.90283,9.4905792 41.949595,7.8975712 48.125,7.6484372 Z m 24.720703,6.5332038 c 5.217104,3.328194 9.644462,7.755552 12.972656,12.972656 L 73.317887,42.845181 c -1.623204,-2.444469 -3.718599,-4.539864 -6.163068,-6.163068 z m -45.636719,0.09375 15.596055,22.422491 c -2.441844,1.622122 -4.535211,3.71549 -6.157333,6.157334 L 14.275391,27.208984 c 3.321392,-5.198807 7.734786,-9.612201 12.933593,-12.933593 z m 60.492188,16.123047 c 2.854736,5.492567 4.47519,11.54244 4.748047,17.726562 l -15.502877,5.523828 c -0.183809,-2.928355 -0.950998,-5.790445 -2.256495,-8.418129 z m -75.384766,0.0078 22.972243,14.841653 c -1.295841,2.62397 -2.055641,5.479922 -2.234991,8.400925 L 7.6484375,48.125 C 7.8975712,41.949595 9.4905792,35.90283 12.316406,30.40625 Z M 7.6484375,51.875 33.053658,56.401349 c 0.17935,2.921003 0.93915,5.776955 2.234991,8.400925 L 12.316406,69.59375 C 9.4905792,64.09717 7.8975712,58.050405 7.6484375,51.875 Z M 76.896165,56.401349 92.351562,51.875 c -0.249134,6.175405 -1.842141,12.22217 -4.667968,17.71875 L 74.661175,64.802274 c 1.29584,-2.62397 2.055641,-5.479922 2.23499,-8.400925 z M 36.647706,67.194961 c 1.622122,2.441844 3.715489,4.535211 6.157333,6.157333 L 27.208984,85.724609 C 22.010177,82.403217 17.596783,77.989823 14.275391,72.791016 Z m 36.654412,0 12.422491,5.596055 c -3.321392,5.198807 -7.734786,9.612201 -12.933593,12.933593 L 67.144784,73.352294 c 2.441844,-1.622122 4.535212,-3.715489 6.157334,-6.157333 z m -28.104392,7.51639 c 2.62397,1.295841 5.479922,2.055641 8.400925,2.234991 L 48.125,92.351562 C 41.949595,92.102428 35.90283,90.509421 30.40625,87.683594 Z m 19.554371,0 4.841653,12.972243 C 64.09717,90.509421 58.050405,92.102428 51.875,92.351562 l 4.476172,-15.40522 c 2.921003,-0.17935 5.776955,-0.93915 8.400925,-2.234991 z" />
    <ellipse
       style="fill:#ffffff;fill-opacity:1;stroke:#ffffff;stroke-width:3;stroke-opacity:1"
       id="path3"
       cx="53.900299"
       cy="44.646442"
       rx="8.5990896"
       ry="8.6225729"
       transform="matrix(0.39062873,0,0,0.39062873,42.5,43.894911)" />
    <g
       id="g9"
       mask="url(#mask17)"
       transform="matrix(0.44787357,0,0,0.44909663,40.647097,42.023938)"
       style="fill:#ffffff;fill-opacity:1;stroke-width:0.870997">
      <path
         style="fill:#ffffff;fill-opacity:1;stroke:#ffffff;stroke-width:2.61301;stroke-opacity:1"
         d="M 47.050611,13.500011 H 33.056249 L 22.21134,50.49999 h 13.614208 z"
         id="path2" />
      <path
         style="color:#000000;fill:#ffffff;fill-opacity:1;stroke:#ffffff;stroke-width:2.61299;stroke-dasharray:none;stroke-opacity:1"
         d="M 5.8945313,13.50001 H 21.02278 L 31.777653,50.499988 H 17.026406 Z"
         id="path4" />
    </g>
  </g>
</svg>
